PathFileType	4	(X/Y/Z)	C:/Users/beibeiliu/ov580/test_trc\sequence.7_training_dense_right.trc
DataRate	CameraRate	NumFrames	NumMarkers	Units	OrigDataRate	OrigDataStartFrame	OrigNumFrames
120	120	12	19	mm	120	272	310
Frame#	Time	ThumbCMC			ThumbMCP			ThumbIP			ThumbTip			IndexMCP			IndexPIP			IndexTip			MiddleMCP			MiddlePIP			MiddleTip			RingMCP			RingPIP			RingTip			PinkyMCP			PinkyPIP			PinkyTip			BackHand1			BackHand2			BackHand3	
		X0	Y0	Z0	X1	Y1	Z1	X2	Y2	Z2	X3	Y3	Z3	X4	Y4	Z4	X5	Y5	Z5	X6	Y6	Z6	X7	Y7	Z7	X8	Y8	Z8	X9	Y9	Z9	X10	Y10	Z10	X11	Y11	Z11	X12	Y12	Z12	X13	Y13	Z13	X14	Y14	Z14	X15	Y15	Z15	X16	Y16	Z16	X17	Y17	Z17	X18	Y18	Z18	
271	2.25833	158.605	-22.6979	16.234	137.879	-32.7878	0.121244	126.553	-36.9632	-20.7245	116.665	-41.9051	-37.8194	162.309	-14.8383	-49.6429	160.427	-19.3006	-73.0709	153.299	-23.3577	-94.782	186.409	-17.2529	-53.5817	188.083	-19.6018	-80.928	188.284	-22.3088	-101.58	204.992	-22.6224	-46.927	211.735	-23.8263	-70.9392	211.983	-25.1217	-86.4935	224.921	-30.9176	-34.5328	229.136	-31.6983	-51.5781	241.672	-27.7716	-62.1433	205.318	-14.4345	-4.689	204.723	-10.7485	20.215	180.26	-3.87807	5.51368	
272	2.26667	156.462	-22.057	18.3291	137.252	-32.7824	0.982362	126.543	-37.0117	-20.5898	119.602	-42.9107	-33.774	161.573	-14.2279	-46.1147	156.782	-18.3568	-69.8128	155.452	-22.813	-90.821	188.55	-17.1827	-52.3082	184.631	-18.2598	-80.0927	186.388	-21.3713	-105.326	204.897	-22.4699	-48.599	207.845	-23.5887	-67.0684	213.475	-25.2585	-89.3435	222.643	-30.8793	-32.3665	232.318	-32.2015	-44.9744	240.208	-29.6627	-59.9665	207.183	-14.1472	-1.41281	204.174	-8.44858	21.5481	180.27	-6.25653	8.17229	
273	2.275	155.113	-22.0123	16.2601	142.391	-32.5451	-1.14199	126.41	-37.4301	-16.7948	119.531	-41.5464	-37.359	165.02	-14.8614	-49.7776	156.97	-18.9829	-72.6835	155.672	-23.3585	-94.7733	188.906	-16.4892	-52.5541	189.819	-19.4805	-75.6062	186.574	-22.3772	-104.547	205.738	-22.9196	-44.6367	207.647	-22.8694	-69.5135	210.765	-25.3555	-88.3299	225.296	-29.6123	-33.1868	232.667	-31.4563	-46.6523	242.994	-28.2136	-64.0828	206.763	-12.6962	-5.43861	202.833	-7.24674	20.4966	178.798	-5.64816	6.32505	
274	2.28333	155.171	-21.8404	19.7202	141.966	-32.9781	-1.62291	130.34	-37.8386	-17.5771	119.52	-42.1361	-35.604	159.234	-14.3306	-49.8465	155.083	-18.601	-70.532	151.688	-22.3664	-91.0073	186.825	-16.4419	-54.7058	189.911	-19.0861	-79.8272	186.996	-21.3197	-103.779	208.798	-22.4211	-44.4215	207.851	-22.8239	-69.1297	212.787	-25.4968	-86.2076	223.786	-29.059	-33.1451	233.909	-31.4371	-45.2483	239.956	-24.2539	-63.5389	205.317	-11.6602	-4.62286	203.305	-7.83607	21.1553	181.481	-5.98582	7.53698	
275	2.29167	157.629	-22.9388	19.1626	138.891	-32.2504	-1.26044	125.861	-36.9067	-18.482	117.104	-42.0792	-36.2673	164.287	-15.9466	-48.7863	158.775	-19.1447	-70.5678	155.943	-22.4961	-90.1808	186.737	-15.9691	-53.1756	185.057	-18.3167	-76.4314	187.055	-21.4046	-103.414	209.031	-23.1414	-45.1163	211.444	-24.1308	-68.1465	214.181	-25.7971	-88.0642	226.194	-30.6308	-29.4825	233.959	-32.1729	-45.9154	242.008	-25.6266	-59.9381	202.338	-13.2912	-1.28572	203.079	-8.86336	26.3939	179.715	-4.30643	6.57962	
276	2.3	154.383	-21.6175	20.7189	138.858	-31.8031	0.0928211	126.628	-36.1454	-17.1402	114.902	-41.9774	-31.1771	161.425	-14.1335	-47.076	157.901	-18.1787	-65.8338	155.511	-21.3506	-89.5706	187.934	-17.4077	-50.9624	185.54	-18.6308	-73.821	192.556	-23.63	-101.173	205.407	-22.0184	-46.0978	211.633	-24.4249	-66.2182	213.428	-25.8156	-83.7894	222.937	-29.7909	-30.7108	230.632	-31.7834	-45.5015	240.232	-28.9933	-58.4052	206.241	-14.5872	-1.10982	206.971	-8.00504	26.4682	179.112	-5.29874	10.7455	
277	2.30833	158.911	-22.0061	19.2484	140.17	-31.6557	1.7469	131.038	-35.862	-18.054	118.401	-40.2482	-31.1073	162.451	-14.7223	-43.3815	158.53	-17.8839	-71.1869	155.522	-22.5957	-92.6459	188.12	-16.4799	-50.1952	187.571	-19.2116	-75.189	191.06	-22.1822	-98.8926	209.199	-23.5128	-45.6041	212.982	-24.8546	-67.7574	212.816	-25.5024	-87.4397	224.535	-31.5806	-26.8467	234.078	-32.012	-46.3081	241.834	-28.982	-58.5845	205.038	-12.2572	-0.0730724	205.94	-9.0786	27.0086	179.474	-3.42705	10.1055	
278	2.31667	157.02	-22.3458	18.4187	143.308	-32.5103	2.74136	131.263	-36.8181	-16.4776	118.808	-40.6965	-31.9638	163.741	-15.4472	-43.1338	158.313	-18.2137	-66.4256	155.085	-22.009	-87.625	189.092	-17.0245	-52.7477	189.064	-19.9897	-77.6364	192.226	-23.2197	-97.9813	206.544	-22.4583	-43.6535	213.619	-25.0936	-68.555	210.993	-26.9726	-85.4405	224.889	-31.5679	-29.1002	228.574	-32.6805	-43.6791	242.738	-27.9704	-58.2754	208.077	-14.723	-0.896931	205.503	-9.7002	25.2399	182.589	-6.71769	12.4682	
279	2.325	156.55	-21.8256	18.9491	138.461	-31.5157	2.08284	128.312	-35.2903	-16.1661	115.853	-40.0478	-32.0645	162.542	-14.4681	-42.6224	159.326	-18.8016	-66.1527	155.147	-21.7578	-88.9635	186.37	-16.4835	-51.1827	189.068	-19.6831	-74.8647	192.06	-24.3803	-99.6441	209.434	-23.2882	-45.0146	213.591	-26.0552	-65.7323	214.134	-26.8377	-87.746	228.384	-31.8568	-29.7057	229.133	-33.0475	-42.2928	239.243	-28.8678	-60.1806	208.816	-15.5779	-0.838164	205.38	-8.03449	24.7141	180.469	-6.0157	13.1878	
280	2.33333	156.056	-22.3153	21.5349	143.737	-33.5939	3.3537	126.722	-36.7549	-15.7884	117.283	-41.4055	-32.1689	164.873	-15.1892	-42.4242	157.542	-18.8343	-66.7563	157.059	-22.9636	-87.4841	189.596	-18.3847	-48.9281	190.12	-20.7899	-73.6395	192.829	-24.0192	-99.418	209.779	-24.1524	-42.7916	213.601	-26.2938	-63.7419	212.874	-27.8999	-85.2026	227.244	-33.2755	-28.647	234.22	-32.8913	-46.5076	245.022	-30.1223	-60.0776	204.435	-14.1784	3.10378	209.119	-8.88567	26.4204	181.916	-3.93793	9.81262	
281	2.34167	156.583	-22.1943	19.9768	141.305	-33.202	3.41826	132.748	-37.2313	-13.5845	118.867	-41.034	-33.5369	165.056	-15.1455	-45.5387	162.648	-19.0439	-70.0414	156.265	-23.1331	-92.3915	186.5	-17.4834	-50.4241	189.416	-21.4194	-77.5803	189.452	-23.5991	-99.139	209.043	-23.0708	-46.0461	210.919	-25.9684	-62.3512	215.992	-28.0282	-84.5926	227.225	-32.4465	-28.9341	234.366	-34.2013	-43.6086	243.637	-30.1878	-58.7954	207.038	-13.7603	0.98717	209.924	-9.5913	22.6343	184.255	-5.48463	8.70988	
282	2.35	160.295	-23.9364	21.8538	140.153	-33.1758	4.33877	132.249	-37.458	-17.3165	121.849	-41.6043	-29.5604	165.688	-15.7821	-46.2649	160.243	-17.6925	-66.2352	156.369	-22.9466	-89.2934	188.246	-17.3134	-48.5619	190.005	-21.1503	-72.9767	193.805	-25.754	-101	208.136	-24.2046	-41.7615	213.465	-26.2612	-65.7011	211.888	-27.2918	-83.1686	229.965	-32.7913	-30.6826	231.255	-33.7437	-42.3545	243.31	-31.603	-56.3921	206.407	-15.4232	1.5946	208.773	-10.5023	24.4162	183.898	-6.9812	9.94292	
